<svg width="172" height="24" viewBox="0 0 172 24" fill="none" xmlns="http://www.w3.org/2000/svg">
<path d="M43.8469 8.53775C45.7439 8.53775 46.5406 7.27352 46.5406 5.8314C46.5406 4.38928 45.7312 3.11361 43.8469 3.11361H40.0415V8.53775H43.8469ZM36.8549 0.369141H44.1887C47.6777 0.369141 49.764 2.64476 49.764 5.8314C49.764 9.01804 47.6777 11.281 44.1887 11.281H40.0415V18.071H36.8549V0.369141Z" fill="black"/>
<path d="M81.0356 15.7195H81.8577C83.3367 15.7195 84.5259 13.9876 84.5259 11.6993C84.5259 9.41099 83.338 7.67918 81.845 7.67918H81.0356C79.544 7.67918 78.3547 9.36016 78.3547 11.6993C78.3547 14.0385 79.5427 15.7195 81.0356 15.7195ZM75.3459 11.6993C75.3459 7.89391 77.7486 5.12402 80.9467 5.12402H81.9327C85.132 5.12402 87.5334 7.87993 87.5334 11.6993C87.5334 15.5187 85.1435 18.2746 81.9454 18.2746H80.9594C77.7474 18.2746 75.3459 15.4806 75.3459 11.6993Z" fill="black"/>
<path d="M88.4822 0.369141H100.38V3.11234H91.6688V7.58862H99.9632V10.3318H91.6688V15.3265H100.405V18.0697H88.4822V0.369141Z" fill="black"/>
<path d="M118.372 10.1556C118.321 8.66388 117.31 7.47461 116.096 7.47461H115.211C114.136 7.47461 113.099 8.43518 112.708 10.1556H118.372ZM115.123 5.12402H116.084C119.131 5.12402 121.331 7.86722 121.331 11.2432C121.331 11.8505 121.306 12.0652 121.28 12.3181H112.595C112.784 14.4679 113.884 15.783 115.199 15.783H116.122C117.335 15.783 118.195 14.8974 118.397 13.8237H121.255C120.977 16.3903 118.777 18.2746 116.096 18.2746H115.187C111.975 18.2746 109.611 15.506 109.611 11.6625C109.611 7.61692 112.355 5.12529 115.124 5.12529L115.123 5.12402Z" fill="black"/>
<path d="M122.101 11.6974C122.101 8.09398 124.263 5.12207 127.778 5.12207H128.6C131.483 5.12207 133.569 7.27191 133.733 10.2934H130.774C130.635 8.80169 129.775 7.67595 128.574 7.67595H127.778C126.059 7.67595 125.109 9.54753 125.109 11.6961C125.109 13.8447 126.057 15.7162 127.727 15.7162H128.536C129.775 15.7162 130.559 14.5905 130.812 13.1878H133.771C133.442 16.0199 131.495 18.2701 128.549 18.2701H127.74C124.225 18.2701 122.101 15.2741 122.101 11.6948V11.6974Z" fill="black"/>
<path d="M139.35 0.91338V5.32613H142.941V7.81649H139.35V14.1377C139.35 15.2126 139.881 15.5785 140.665 15.5785H142.828V18.0689H139.832C137.644 18.0689 136.392 16.9558 136.392 14.4528V7.81522H133.915V5.32486H136.392V2.22717L139.352 0.912109L139.35 0.91338Z" fill="black"/>
<path d="M143.855 5.3252H146.826V18.0705H143.855V5.3252Z" fill="black"/>
<path d="M147.548 5.32617H150.608L153.048 12.4821C153.276 13.228 153.579 14.5049 153.579 14.5049H153.668C153.668 14.5049 153.997 13.2407 154.238 12.4948L156.64 5.32617H159.687L155.149 18.0714H152.089L147.551 5.32617H147.548Z" fill="black"/>
<path d="M164.569 15.7195H165.391C166.87 15.7195 168.06 13.9876 168.06 11.6993C168.06 9.41099 166.872 7.67918 165.379 7.67918H164.569C163.078 7.67918 161.888 9.36016 161.888 11.6993C161.888 14.0385 163.076 15.7195 164.569 15.7195ZM158.88 11.6993C158.88 7.89391 161.282 5.12402 164.48 5.12402H165.466C168.666 5.12402 171.067 7.87993 171.067 11.6993C171.067 15.5187 168.677 18.2746 165.479 18.2746H164.493C161.281 18.2746 158.88 15.4806 158.88 11.6993Z" fill="black"/>
<path d="M61.4311 15.5231C61.2418 15.485 61.0957 15.3973 60.9953 15.2576C60.8936 15.1191 60.8441 14.9056 60.8441 14.6184V9.87661C60.8441 8.99101 60.6548 8.18419 60.2749 7.45487C59.895 6.72555 59.3473 6.15506 58.6307 5.74212C57.9141 5.32918 57.0717 5.12207 56.1023 5.12207H55.1798C54.3196 5.12207 53.5192 5.30122 52.7771 5.65953C52.0351 6.01784 51.429 6.52607 50.9564 7.18296C50.4837 7.83986 50.2906 8.43958 50.2232 9.28198H53.1952C53.2371 8.69242 53.3718 8.35445 53.7517 8.01774C54.1303 7.68104 54.6246 7.53746 55.1798 7.53746H56.1023C56.4224 7.53746 56.7223 7.63275 57.0006 7.82207C57.2788 8.01139 57.4974 8.27694 57.6575 8.61873C57.8176 8.96052 57.8976 9.34169 57.8976 9.76353V10.0164L54.5216 10.5221C53.1647 10.7419 52.0796 11.184 51.2664 11.8498C50.4532 12.5156 50.0466 13.4266 50.0466 14.5803C50.0466 15.3224 50.222 15.9716 50.5714 16.5269C50.9208 17.0834 51.4163 17.5128 52.0567 17.8165C52.6971 18.1202 53.4391 18.2714 54.2815 18.2714C55.1836 18.2714 55.9803 18.0948 56.6715 17.7403C57.3627 17.3858 57.8722 16.9017 58.2013 16.2867C58.2343 16.9017 58.4351 17.3528 58.8023 17.6399C59.1682 17.9271 59.6688 18.0694 60.3003 18.0694H62.2849V15.579C61.905 15.579 61.6204 15.56 61.4311 15.5218V15.5231ZM57.8976 12.7863C57.8976 13.4101 57.7693 13.9628 57.5126 14.4431C57.2559 14.9234 56.8926 15.2969 56.425 15.5625C55.9574 15.828 55.4199 15.9602 54.8126 15.9602C54.298 15.9602 53.8762 15.8217 53.5484 15.5434C53.2193 15.2652 53.0554 14.9031 53.0554 14.4558C53.0554 13.8993 53.2383 13.4927 53.6055 13.236C53.9727 12.9794 54.5394 12.7837 55.3056 12.6478L57.8976 12.1675V12.7875V12.7863Z" fill="black"/>
<path d="M109.672 7.79133H106.207V18.0704H103.235V7.79133H100.758V5.32639H103.235V4.12568C103.235 2.90338 103.543 1.97203 104.158 1.33166C104.773 0.691282 105.637 0.371094 106.75 0.371094H109.671V2.83604H107.648C107.159 2.83604 106.797 2.96436 106.561 3.22102C106.324 3.47768 106.206 3.87156 106.206 4.40267V5.32512H109.671V7.79006L109.672 7.79133Z" fill="black"/>
<path d="M68.1078 15.4211H68.9311C70.3237 15.4211 71.64 13.9154 71.64 11.5356C71.64 9.15581 70.3237 7.66287 68.9311 7.66287H68.1078C66.8042 7.66287 65.4116 9.15581 65.4116 11.5356C65.4116 13.9154 66.7915 15.4211 68.1078 15.4211ZM62.399 11.5356C62.399 7.8903 64.4498 5.10645 67.7152 5.10645H68.475C69.5385 5.10645 70.7659 5.85355 71.424 6.80268V5.30974H74.3985V18.0715C74.3985 20.9824 72.3986 23.2479 68.5512 23.2479C65.1461 23.2479 63.0331 21.3369 62.9441 18.919H65.9821C66.1219 19.9698 66.7915 20.7537 68.5512 20.7537C70.311 20.7537 71.424 19.614 71.424 18.1338V16.2317C70.7405 17.1936 69.5131 17.9788 68.3988 17.9788H67.6517C64.5756 17.9788 62.399 15.0679 62.399 11.5369V11.5356Z" fill="black"/>
<path d="M146.954 0.383789H143.742V3.5196H146.954V0.383789Z" fill="black"/>
<path d="M27.6664 9.32685V9.33702C27.6664 9.43612 27.627 9.53015 27.5571 9.60003L18.724 18.4332C18.6884 18.4687 18.6414 18.4878 18.5919 18.4878H18.5359C18.433 18.4878 18.3492 18.4039 18.3492 18.301V9.33575C18.3492 9.43485 18.3098 9.52887 18.2399 9.59876L9.46014 18.3785C9.39025 18.4484 9.29496 18.4878 9.19712 18.4878H9.18696C9.08785 18.4878 8.99383 18.4484 8.92395 18.3785L0.144183 9.6013C0.0743003 9.53142 0.0349121 9.43612 0.0349121 9.33829V9.32812C0.0349121 9.22902 0.0743003 9.13499 0.144183 9.06511L8.92268 0.284075C8.99256 0.214193 9.08785 0.174805 9.18569 0.174805H9.19585C9.29496 0.174805 9.38898 0.214193 9.45886 0.284075L18.2386 9.06384C18.3085 9.13372 18.3479 9.22902 18.3479 9.32685V0.361581C18.3479 0.258664 18.4318 0.174805 18.5347 0.174805H18.5906C18.6401 0.174805 18.6871 0.193864 18.7227 0.22944L27.5559 9.06257C27.6257 9.13245 27.6651 9.22775 27.6651 9.32558L27.6664 9.32685Z" fill="black"/>
</svg>
